<?xml version="1.0" encoding="UTF-8" standalone="no"?>
<!-- Created with Inkscape (http://www.inkscape.org/) -->

<svg
   xmlns:dc="http://purl.org/dc/elements/1.1/"
   xmlns:cc="http://creativecommons.org/ns#"
   xmlns:rdf="http://www.w3.org/1999/02/22-rdf-syntax-ns#"
   xmlns:svg="http://www.w3.org/2000/svg"
   xmlns="http://www.w3.org/2000/svg"
   xmlns:xlink="http://www.w3.org/1999/xlink"
   xmlns:sodipodi="http://sodipodi.sourceforge.net/DTD/sodipodi-0.dtd"
   xmlns:inkscape="http://www.inkscape.org/namespaces/inkscape"
   id="svg5463"
   version="1.1"
   inkscape:version="0.48.2 r9819"
   width="170.90097"
   height="173.4183"
   xml:space="preserve"
   sodipodi:docname="duck.svg"><metadata
     id="metadata5469"><rdf:RDF><cc:Work
         rdf:about=""><dc:format>image/svg+xml</dc:format><dc:type
           rdf:resource="http://purl.org/dc/dcmitype/StillImage" /><dc:title></dc:title></cc:Work></rdf:RDF></metadata><defs
     id="defs5467"><clipPath
       clipPathUnits="userSpaceOnUse"
       id="clipPath5481"><path
         d="m 0,167.24 249.45,0 L 249.45,0 0,0 0,167.24 z"
         id="path5483"
         inkscape:connector-curvature="0" /></clipPath><linearGradient
       id="linearGradient4919"><stop
         id="stop4921"
         offset="0"
         style="stop-color:#ffee32;stop-opacity:1;" /><stop
         id="stop4923"
         offset="1"
         style="stop-color:#ffb622;stop-opacity:1;" /></linearGradient><linearGradient
       gradientUnits="userSpaceOnUse"
       y2="-591.42859"
       x2="418.07648"
       y1="-162.85715"
       x1="268.07648"
       id="linearGradient4925"
       xlink:href="#linearGradient4919-0"
       inkscape:collect="always" /><linearGradient
       id="linearGradient4919-0"><stop
         id="stop4921-7"
         offset="0"
         style="stop-color:#f8fc62;stop-opacity:1;" /><stop
         id="stop4923-5"
         offset="1"
         style="stop-color:#f5b22a;stop-opacity:1;" /></linearGradient><linearGradient
       inkscape:collect="always"
       xlink:href="#linearGradient4919-0"
       id="linearGradient7459"
       gradientUnits="userSpaceOnUse"
       x1="268.07648"
       y1="-162.85715"
       x2="418.07648"
       y2="-591.42859" /><linearGradient
       inkscape:collect="always"
       xlink:href="#linearGradient4919-0"
       id="linearGradient8256"
       gradientUnits="userSpaceOnUse"
       x1="268.07648"
       y1="-162.85715"
       x2="418.07648"
       y2="-591.42859" /><linearGradient
       inkscape:collect="always"
       xlink:href="#linearGradient4919-0"
       id="linearGradient3196"
       gradientUnits="userSpaceOnUse"
       x1="191.92883"
       y1="-127.90413"
       x2="426.81473"
       y2="-656.34137" /></defs><sodipodi:namedview
     pagecolor="#ffffff"
     bordercolor="#666666"
     borderopacity="1"
     objecttolerance="10"
     gridtolerance="10"
     guidetolerance="10"
     inkscape:pageopacity="0"
     inkscape:pageshadow="2"
     inkscape:window-width="1280"
     inkscape:window-height="752"
     id="namedview5465"
     showgrid="false"
     inkscape:zoom="1.28"
     inkscape:cx="29.920075"
     inkscape:cy="58.63688"
     inkscape:window-x="6"
     inkscape:window-y="22"
     inkscape:window-maximized="0"
     inkscape:current-layer="g4953"
     units="mm"
     fit-margin-top="0.5"
     fit-margin-left="0.5"
     fit-margin-right="0.5"
     fit-margin-bottom="0.5" /><g
     id="g5471"
     inkscape:groupmode="layer"
     inkscape:label="businesscard_template_uk"
     transform="matrix(1.25,0,0,-1.25,149.07548,174.82791)"
     style="display:inline"><g
       transform="matrix(0.47767914,0,0,-0.47767914,396.37978,123.5331)"
       id="g3166"
       style="fill:#ffffff;fill-opacity:1" /><path
       style="opacity:0.39719627;fill:#13131b;fill-opacity:1;stroke:none"
       d="m -444.18437,-125.83824 0,-156.97731 -252.48327,0 0,156.97731 252.48327,0 z m -101.23813,-13.65864 c -14.4557,0 -26.65277,-9.66226 -30.4819,-22.88382 -0.80294,1.55668 -1.52861,3.1893 -2.1197,4.85143 -0.99839,-3.97407 -0.20121,-8.35206 0.92551,-11.89719 -0.0333,-0.59519 -0.0597,-1.1878 -0.0597,-1.7913 0,-9.46604 4.14396,-17.96563 10.71792,-23.77947 -21.35379,-3.84819 -33.51202,-13.2666 -66.68102,-15.83805 -10.55844,-70.75906 52.47261,-56.12647 82.23545,-58.32163 20.91675,0 37.871,16.96917 37.871,37.88592 0,13.45983 -7.03519,25.27319 -17.61442,31.98958 3.09948,1.63766 5.89976,3.75693 8.28475,6.28446 4.96448,0.20226 11.79388,1.28773 15.77834,5.35897 -1.56272,3.34999 -4.93716,6.82435 -7.91157,9.46402 0.49994,2.23704 0.77623,4.56842 0.77623,6.9562 0,17.52485 -14.19603,31.72088 -31.72088,31.72088 z"
       id="rect4003"
       inkscape:connector-curvature="0" /><flowRoot
       xml:space="preserve"
       id="flowRoot5418"
       style="font-size:40px;font-style:normal;font-weight:normal;line-height:125%;letter-spacing:0px;word-spacing:0px;fill:#000000;fill-opacity:1;stroke:none;font-family:Sans"
       transform="matrix(0.47767914,0,0,-0.47767914,-82.589758,220.38288)"><flowRegion
         id="flowRegion5420"><rect
           id="rect5422"
           width="473.76154"
           height="267.69043"
           x="28.284271"
           y="32.628178" /></flowRegion><flowPara
         id="flowPara5424" /></flowRoot><g
       id="g4953"
       transform="matrix(0.50067205,0,0,-0.50067205,1.2229574,188.9862)"><path
         inkscape:connector-curvature="0"
         id="path4955"
         transform="matrix(1.5978523,0,0,1.5978523,-353.20729,69.638783)"
         d="m 123.15625,19.59375 c -22.9605,0 -41.5625,18.602001 -41.5625,41.5625 0,3.124057 0.346766,6.166591 1,9.09375 -3.897622,3.458693 -8.32712,8.016197 -10.375,12.40625 5.220042,5.333733 14.183273,6.766159 20.6875,7.03125 3.122255,3.30974 6.786408,6.104404 10.84375,8.25 -13.859961,8.79971 -23.0625,24.24082 -23.0625,41.875 0,27.40447 22.22053,49.65625 49.625,49.65625 38.99433,-2.87604 121.55205,16.30003 107.71875,-76.40625 -43.47436,-3.37037 -59.37708,-15.712068 -87.375,-20.75 8.61672,-7.617256 14.0625,-18.751062 14.0625,-31.15625 0,-0.76999 -0.0212,-1.521576 -0.0625,-2.28125 1.48696,-4.655843 2.53279,-10.425741 1.21875,-15.65625 -0.77442,2.177682 -1.76051,4.335498 -2.8125,6.375 -5.01092,-17.331706 -20.96027,-30 -39.90625,-30 z"
         style="fill:#d4d4d4;fill-opacity:1;stroke:none" /></g></g></svg>